<?xml version="1.0" standalone="no"?>
<svg viewBox="0 0 200 200" xmlns="http://www.w3.org/2000/svg">
  <path fill="#7F00FF" d="M20.4,-40.6C30,-29.9,43.7,-31.5,48,-26.8C52.3,-22.1,47.1,-11,43.5,-2.1C39.8,6.8,37.5,13.6,32.6,17.2C27.7,20.9,20.2,21.4,14.3,25.8C8.5,30.2,4.2,38.5,-2.2,42.2C-8.6,46,-17.1,45.3,-23.2,41C-29.2,36.7,-32.7,28.8,-33.9,21.3C-35.1,13.9,-34.1,7,-41.9,-4.5C-49.7,-15.9,-66.2,-31.9,-67.3,-43.3C-68.4,-54.8,-54,-61.7,-40.2,-70C-26.4,-78.3,-13.2,-87.8,-3.9,-81.1C5.4,-74.4,10.9,-51.3,20.4,-40.6Z" transform="translate(100 100)" />
</svg>
